<svg width="152" height="20" fill="none" xmlns="http://www.w3.org/2000/svg"><path d="M8.294.592h3.302l2.08 6.11 2.08-6.11h3.328L15.938 8.99l2.34 5.902L23.504.54h3.9L19.89 19h-3.016l-3.198-7.748L10.478 19H7.462L0 .54h3.848L9.1 14.892l2.288-5.902L8.294.592zM34.3793 19.26c-1.092 0-2.08-.182-2.964-.546-.884-.3813-1.638-.8927-2.262-1.534-.624-.6413-1.1093-1.3867-1.456-2.236-.3293-.8493-.494-1.742-.494-2.678 0-.9707.1647-1.8807.494-2.73.3293-.8667.806-1.6207 1.43-2.262.624-.6587 1.378-1.1787 2.262-1.56.9013-.3813 1.9067-.572 3.016-.572s2.0973.1907 2.964.572c.884.3813 1.6293.8927 2.236 1.534.624.6413 1.092 1.3867 1.404 2.236.3293.8493.494 1.7333.494 2.652 0 .2253-.0087.442-.026.65 0 .208-.0173.3813-.052.52h-10.53c.052.5373.182 1.014.39 1.43.208.416.4767.7713.806 1.066.3293.2947.702.52 1.118.676.416.156.8493.234 1.3.234.6933 0 1.3433-.1647 1.95-.494.624-.3467 1.0487-.7973 1.274-1.352l2.99.832c-.5027 1.04-1.3087 1.898-2.418 2.574-1.092.6587-2.4007.988-3.926.988zm3.536-8.216c-.0867-1.0227-.468-1.8373-1.144-2.444-.6587-.624-1.4647-.936-2.418-.936-.468 0-.91.0867-1.326.26a3.2783 3.2783 0 00-1.066.676c-.312.2947-.572.65-.78 1.066-.1907.416-.3033.8753-.338 1.378h7.072zm14.2385 8.216c-1.04 0-1.9674-.234-2.782-.702-.8147-.468-1.456-1.1093-1.924-1.924V19h-3.042V.02h3.484v7.748c.4853-.832 1.118-1.4733 1.898-1.924.7973-.468 1.7246-.702 2.782-.702.884 0 1.69.1907 2.418.572.728.3813 1.352.8927 1.872 1.534.5373.6413.9446 1.3953 1.222 2.262.2946.8667.442 1.7767.442 2.73 0 .988-.1647 1.9067-.494 2.756-.312.8493-.754 1.5947-1.326 2.236-.572.624-1.248 1.118-2.028 1.482-.78.364-1.6207.546-2.522.546zm-.962-2.964c.5546 0 1.066-.104 1.534-.312.468-.2253.8666-.52 1.196-.884.3293-.364.5806-.7887.754-1.274.1906-.4853.286-1.0053.286-1.56s-.0867-1.0833-.26-1.586c-.1734-.5027-.4247-.9447-.754-1.326-.312-.3813-.6847-.6847-1.118-.91-.4334-.2253-.91-.338-1.43-.338-.78 0-1.482.26-2.106.78-.6067.5027-1.0747 1.1267-1.404 1.872v3.25c.1213.3467.2946.6587.52.936.2426.2773.5113.52.806.728.2946.1907.6153.3467.962.468.3466.104.6846.156 1.014.156z" fill="#2196F3"/><path d="M80.0264 5.376c-.1214-.1213-.3467-.286-.676-.494-.312-.208-.702-.4073-1.17-.598-.4507-.208-.9447-.3813-1.482-.52a6.5299 6.5299 0 00-1.638-.208c-.988 0-1.7247.182-2.21.546-.4854.364-.728.8753-.728 1.534 0 .3813.0866.702.26.962.1906.2427.4593.4593.806.65.3466.1907.78.364 1.3.52.5373.156 1.1526.3207 1.846.494.9013.2427 1.716.5027 2.444.78.7453.2773 1.3693.624 1.872 1.04.52.416.9186.9187 1.196 1.508.2773.572.416 1.2827.416 2.132 0 .988-.1907 1.8373-.572 2.548-.364.6933-.8667 1.2567-1.508 1.69-.624.4333-1.352.754-2.184.962-.8147.1907-1.6727.286-2.574.286-1.3867 0-2.756-.208-4.108-.624-1.352-.416-2.5654-1.0053-3.64-1.768l1.586-3.094c.156.156.4333.364.832.624.416.2427.9013.494 1.456.754.5546.2427 1.17.4507 1.846.624.676.1733 1.3693.26 2.08.26 1.976 0 2.964-.6327 2.964-1.898 0-.3987-.1127-.7367-.338-1.014-.2254-.2773-.546-.52-.962-.728-.416-.208-.9187-.3987-1.508-.572-.5894-.1733-1.248-.364-1.976-.572-.884-.2427-1.6554-.5027-2.314-.78-.6414-.2947-1.1787-.6327-1.612-1.014-.4334-.3987-.7627-.8493-.988-1.352-.208-.52-.312-1.1353-.312-1.846 0-.936.1733-1.768.52-2.496.3466-.728.8233-1.3347 1.43-1.82.624-.4853 1.3433-.8493 2.158-1.092.8146-.26 1.69-.39 2.626-.39 1.3 0 2.496.208 3.588.624 1.092.3987 2.0453.8753 2.86 1.43l-1.586 2.912zm13.4009 12.922c-.468.208-1.04.416-1.716.624-.676.208-1.3866.312-2.132.312-.4853 0-.9446-.0607-1.378-.182-.416-.1213-.7886-.312-1.118-.572-.312-.2773-.5633-.624-.754-1.04-.1906-.4333-.286-.9533-.286-1.56V8.054h-1.794V5.376h1.794V.956h3.484v4.42h2.86v2.678h-2.86v6.656c0 .4853.1214.832.364 1.04.26.1907.572.286.936.286.364 0 .7194-.0607 1.066-.182.3467-.1213.624-.2253.832-.312l.702 2.756zm6.7547.962c-1.4041 0-2.4701-.4507-3.1981-1.352-.728-.9013-1.092-2.236-1.092-4.004V5.376h3.484v7.774c0 2.0973.7541 3.146 2.2621 3.146.676 0 1.326-.1993 1.95-.598.641-.416 1.161-1.04 1.56-1.872v-8.45h3.484v9.62c0 .364.061.624.182.78.139.156.355.2427.65.26V19c-.347.0693-.641.1127-.884.13-.225.0173-.433.026-.624.026-.624 0-1.135-.1387-1.534-.416-.381-.2947-.607-.6933-.676-1.196l-.078-1.092c-.607.936-1.387 1.638-2.34 2.106-.953.468-2.002.702-3.146.702zm18.334 0c-.936 0-1.803-.182-2.6-.546-.797-.364-1.482-.8667-2.054-1.508-.572-.6413-1.023-1.3867-1.352-2.236-.312-.8667-.468-1.794-.468-2.782s.147-1.9067.442-2.756c.312-.8493.737-1.5947 1.274-2.236.537-.6413 1.179-1.144 1.924-1.508.745-.364 1.56-.546 2.444-.546 1.005 0 1.907.2427 2.704.728.815.4853 1.447 1.118 1.898 1.898V.02h3.484v14.976c0 .364.061.624.182.78.121.156.329.2427.624.26V19c-.607.1213-1.101.182-1.482.182-.624 0-1.135-.156-1.534-.468-.399-.312-.624-.7193-.676-1.222l-.078-.858c-.503.8667-1.187 1.5253-2.054 1.976-.849.4333-1.742.65-2.678.65zm.91-2.964c.329 0 .667-.052 1.014-.156.347-.1213.667-.286.962-.494.295-.208.555-.4507.78-.728.243-.2773.425-.5807.546-.91v-3.25a3.4666 3.4666 0 00-.598-1.04c-.243-.3293-.529-.6067-.858-.832a3.9121 3.9121 0 00-1.014-.572c-.347-.1387-.693-.208-1.04-.208-.52 0-1.005.1127-1.456.338-.433.2253-.806.5373-1.118.936-.312.3813-.555.8233-.728 1.326a4.7612 4.7612 0 00-.26 1.56c0 .572.095 1.1007.286 1.586.191.4853.451.91.78 1.274s.719.65 1.17.858c.468.208.979.312 1.534.312zM130.412 19V5.376h3.484V19h-3.484zm0-15.522V.02h3.484v3.458h-3.484zm13.699 15.782c-1.109 0-2.106-.1907-2.99-.572-.884-.3813-1.638-.8927-2.262-1.534-.607-.6587-1.075-1.4127-1.404-2.262-.329-.8493-.494-1.742-.494-2.678 0-.9533.165-1.8547.494-2.704.329-.8493.797-1.5947 1.404-2.236.624-.6587 1.378-1.1787 2.262-1.56.884-.3813 1.881-.572 2.99-.572 1.109 0 2.097.1907 2.964.572.884.3813 1.629.9013 2.236 1.56.624.6413 1.101 1.3867 1.43 2.236.329.8493.494 1.7507.494 2.704 0 .936-.165 1.8287-.494 2.678-.329.8493-.797 1.6033-1.404 2.262-.607.6413-1.352 1.1527-2.236 1.534-.884.3813-1.881.572-2.99.572zm-3.562-7.046c0 .6067.087 1.1613.26 1.664.191.4853.442.91.754 1.274.329.364.711.65 1.144.858.433.1907.901.286 1.404.286.503 0 .971-.0953 1.404-.286.433-.208.806-.494 1.118-.858.329-.364.581-.7973.754-1.3.191-.5027.286-1.0573.286-1.664 0-.5893-.095-1.1353-.286-1.638-.173-.5027-.425-.936-.754-1.3-.312-.364-.685-.6413-1.118-.832-.433-.208-.901-.312-1.404-.312-.503 0-.971.104-1.404.312-.433.208-.815.494-1.144.858-.312.364-.563.7973-.754 1.3-.173.5027-.26 1.0487-.26 1.638z" fill="#000"/></svg>