<svg width="128" height="18" fill="none" xmlns="http://www.w3.org/2000/svg"><path d="M7.018 1.424h2.794l1.76 5.17 1.76-5.17h2.816L13.486 8.53l1.98 4.994L19.888 1.38h3.3L16.83 17h-2.552l-2.706-6.556L8.866 17H6.314L0 1.38h3.256L7.7 13.524 9.636 8.53 7.018 1.424zM29.0902 17.22c-.924 0-1.76-.154-2.508-.462-.748-.3227-1.386-.7553-1.914-1.298-.528-.5427-.9387-1.1733-1.232-1.892-.2787-.7187-.418-1.474-.418-2.266 0-.8213.1393-1.5913.418-2.31.2787-.7333.682-1.3713 1.21-1.914.528-.5573 1.166-.9973 1.914-1.32.7627-.3227 1.6133-.484 2.552-.484.9387 0 1.7747.1613 2.508.484.748.3227 1.3787.7553 1.892 1.298.528.5427.924 1.1733 1.188 1.892.2787.7187.418 1.4667.418 2.244 0 .1907-.0073.374-.022.55 0 .176-.0147.3227-.044.44h-8.91c.044.4547.154.858.33 1.21.176.352.4033.6527.682.902.2787.2493.594.44.946.572.352.132.7187.198 1.1.198.5867 0 1.1367-.1393 1.65-.418.528-.2933.8873-.6747 1.078-1.144l2.53.704c-.4253.88-1.1073 1.606-2.046 2.178-.924.5573-2.0313.836-3.322.836zm2.992-6.952c-.0733-.8653-.396-1.5547-.968-2.068-.5573-.528-1.2393-.792-2.046-.792-.396 0-.77.0733-1.122.22a2.7747 2.7747 0 00-.902.572c-.264.2493-.484.55-.66.902-.1613.352-.2567.7407-.286 1.166h5.984zm12.0479 6.952c-.88 0-1.6647-.198-2.354-.594-.6893-.396-1.232-.9387-1.628-1.628V17h-2.574V.94h2.948v6.556c.4107-.704.946-1.2467 1.606-1.628.6747-.396 1.4593-.594 2.354-.594.748 0 1.43.1613 2.046.484.616.3227 1.144.7553 1.584 1.298.4547.5427.7993 1.1807 1.034 1.914.2493.7333.374 1.5033.374 2.31 0 .836-.1393 1.6133-.418 2.332-.264.7187-.638 1.3493-1.122 1.892-.484.528-1.056.946-1.716 1.254-.66.308-1.3713.462-2.134.462zm-.814-2.508c.4693 0 .902-.088 1.298-.264.396-.1907.7333-.44 1.012-.748.2787-.308.4913-.6673.638-1.078.1613-.4107.242-.8507.242-1.32 0-.4693-.0733-.9167-.22-1.342-.1467-.4253-.3593-.7993-.638-1.122a2.9974 2.9974 0 00-.946-.77c-.3667-.1907-.77-.286-1.21-.286-.66 0-1.254.22-1.782.66-.5133.4253-.9093.9533-1.188 1.584v2.75c.1027.2933.2493.5573.44.792.2053.2347.4327.44.682.616.2493.1613.5207.2933.814.396.2933.088.5793.132.858.132z" fill="#2196F3"/><path d="M67.7146 5.472c-.1026-.1027-.2933-.242-.572-.418-.264-.176-.594-.3447-.99-.506-.3813-.176-.7993-.3227-1.254-.44a5.5241 5.5241 0 00-1.386-.176c-.836 0-1.4593.154-1.87.462-.4106.308-.616.7407-.616 1.298 0 .3227.0734.594.22.814.1614.2053.3887.3887.682.55.2934.1613.66.308 1.1.44.4547.132.9754.2713 1.562.418.7627.2053 1.452.4253 2.068.66.6307.2347 1.1587.528 1.584.88.44.352.7774.7773 1.012 1.276.2347.484.352 1.0853.352 1.804 0 .836-.1613 1.5547-.484 2.156-.308.5867-.7333 1.0633-1.276 1.43-.528.3667-1.144.638-1.848.814-.6893.1613-1.4153.242-2.178.242-1.1733 0-2.332-.176-3.476-.528-1.144-.352-2.1706-.8507-3.08-1.496l1.342-2.618c.132.132.3667.308.704.528.352.2053.7627.418 1.232.638.4694.2053.99.3813 1.562.528.572.1467 1.1587.22 1.76.22 1.672 0 2.508-.5353 2.508-1.606 0-.3373-.0953-.6233-.286-.858-.1906-.2347-.462-.44-.814-.616-.352-.176-.7773-.3373-1.276-.484-.4986-.1467-1.056-.308-1.672-.484-.748-.2053-1.4006-.4253-1.958-.66-.5426-.2493-.9973-.5353-1.364-.858-.3666-.3373-.6453-.7187-.836-1.144-.176-.44-.264-.9607-.264-1.562 0-.792.1467-1.496.44-2.112.2934-.616.6967-1.1293 1.21-1.54.528-.4107 1.1367-.7187 1.826-.924.6894-.22 1.43-.33 2.222-.33 1.1 0 2.112.176 3.036.528.924.3373 1.7307.7407 2.42 1.21l-1.342 2.464zm11.3393 10.934c-.396.176-.88.352-1.452.528-.572.176-1.1733.264-1.804.264-.4107 0-.7993-.0513-1.166-.154-.352-.1027-.6673-.264-.946-.484-.264-.2347-.4767-.528-.638-.88-.1613-.3667-.242-.8067-.242-1.32V7.738h-1.518V5.472h1.518v-3.74h2.948v3.74h2.42v2.266h-2.42v5.632c0 .4107.1027.704.308.88.22.1613.484.242.792.242.308 0 .6087-.0513.902-.154s.528-.1907.704-.264l.594 2.332zm5.7154.814c-1.188 0-2.09-.3813-2.706-1.144-.616-.7627-.924-1.892-.924-3.388V5.472h2.948v6.578c0 1.7747.638 2.662 1.914 2.662.572 0 1.122-.1687 1.65-.506.5426-.352.9826-.88 1.32-1.584v-7.15h2.948v8.14c0 .308.0513.528.154.66.1173.132.3006.2053.55.22V17c-.2934.0587-.5427.0953-.748.11a6.9043 6.9043 0 01-.528.022c-.528 0-.9607-.1173-1.298-.352-.3227-.2493-.5134-.5867-.572-1.012l-.066-.924c-.5134.792-1.1734 1.386-1.98 1.782-.8067.396-1.694.594-2.662.594zm15.5137 0c-.7921 0-1.5255-.154-2.2001-.462-.6747-.308-1.254-.7333-1.738-1.276-.484-.5427-.8654-1.1733-1.144-1.892-.264-.7333-.396-1.518-.396-2.354 0-.836.1246-1.6133.374-2.332.264-.7187.6233-1.3493 1.078-1.892.4546-.5427.9973-.968 1.628-1.276.6306-.308 1.32-.462 2.068-.462.8511 0 1.6131.2053 2.2881.616.689.4107 1.225.946 1.606 1.606V.94h2.948v12.672c0 .308.051.528.154.66.103.132.279.2053.528.22V17c-.513.1027-.931.154-1.254.154-.528 0-.961-.132-1.298-.396-.337-.264-.528-.6087-.572-1.034l-.066-.726c-.425.7333-1.005 1.2907-1.738 1.672-.719.3667-1.474.55-2.266.55zm.77-2.508c.279 0 .565-.044.858-.132.293-.1027.565-.242.814-.418s.469-.3813.66-.616c.205-.2347.359-.4913.462-.77v-2.75a2.9199 2.9199 0 00-.506-.88c-.205-.2787-.447-.5133-.726-.704a3.3103 3.3103 0 00-.858-.484c-.293-.1173-.587-.176-.88-.176-.44 0-.851.0953-1.2321.286-.3667.1907-.682.4547-.946.792-.264.3227-.4694.6967-.616 1.122a4.0199 4.0199 0 00-.22 1.32c0 .484.0806.9313.242 1.342.1613.4107.3813.77.66 1.078.2786.308.6086.55.99.726.3961.176.8291.264 1.2981.264zM110.349 17V5.472h2.948V17h-2.948zm0-13.134V.94h2.948v2.926h-2.948zM121.94 17.22c-.939 0-1.782-.1613-2.53-.484-.748-.3227-1.386-.7553-1.914-1.298-.513-.5573-.909-1.1953-1.188-1.914-.279-.7187-.418-1.474-.418-2.266 0-.8067.139-1.5693.418-2.288.279-.7187.675-1.3493 1.188-1.892.528-.5573 1.166-.9973 1.914-1.32.748-.3227 1.591-.484 2.53-.484.939 0 1.775.1613 2.508.484.748.3227 1.379.7627 1.892 1.32.528.5427.931 1.1733 1.21 1.892.279.7187.418 1.4813.418 2.288 0 .792-.139 1.5473-.418 2.266-.279.7187-.675 1.3567-1.188 1.914-.513.5427-1.144.9753-1.892 1.298-.748.3227-1.591.484-2.53.484zm-3.014-5.962c0 .5133.073.9827.22 1.408.161.4107.374.77.638 1.078.279.308.601.55.968.726.367.1613.763.242 1.188.242.425 0 .821-.0807 1.188-.242.367-.176.682-.418.946-.726.279-.308.491-.6747.638-1.1.161-.4253.242-.8947.242-1.408 0-.4987-.081-.9607-.242-1.386-.147-.4253-.359-.792-.638-1.1-.264-.308-.579-.5427-.946-.704-.367-.176-.763-.264-1.188-.264-.425 0-.821.088-1.188.264-.367.176-.689.418-.968.726-.264.308-.477.6747-.638 1.1-.147.4253-.22.8873-.22 1.386z" fill="#fff"/></svg>